<svg version="1.1" xmlns="http://www.w3.org/2000/svg" xmlns:xlink="http://www.w3.org/1999/xlink" width="333.53433" height="312.74755" viewBox="0,0,333.53433,312.74755"><g transform="translate(-73.23283,-23.62625)"><g data-paper-data="{&quot;isPaintingLayer&quot;:true}" fill-rule="nonzero" stroke="none" stroke-width="0" stroke-linecap="butt" stroke-linejoin="miter" stroke-miterlimit="10" stroke-dasharray="" stroke-dashoffset="0" style="mix-blend-mode: normal"><path d="M73.23283,336.3738v-312.74755h333.53433v312.74755z" fill="#ffffff"/><path d="M343.52067,180.00002c0,54.7645 -46.34778,99.15989 -103.52065,99.15989c-57.17288,0 -103.52065,-44.3954 -103.52065,-99.15989c0,-54.76449 46.34777,-99.15989 103.52065,-99.15989c57.17287,0 103.52065,44.3954 103.52065,99.15989z" fill="#72beff"/><path d="M268.28132,180.00002c0,14.96139 -12.66198,27.09 -28.28133,27.09c-15.61935,0 -28.28133,-12.1286 -28.28133,-27.09c0,-14.96139 12.66198,-27.09 28.28133,-27.09c15.61935,0 28.28133,12.1286 28.28133,27.09z" fill="#ffffff"/><path d="M207.54155,149.32691v-19.17h81.78346l-0.34526,76.35844c0,0 -1.0315,9.21956 -13.12301,14.19254c-13.74375,5.65252 -28.64236,-1.17489 -32.31027,-5.29964c-8.18125,-9.20021 -2.19306,-21.83791 8.89618,-26.11341c12.32094,-4.75037 21.87275,-0.091 21.87275,-0.091l0.18462,-39.87692h-51.6l0.27499,55.42298c0,0 0.21645,11.31089 -15.84263,16.16071c-14.59286,4.40703 -27.18494,-2.29035 -31.32126,-7.13925c-7.0025,-8.20885 -0.39172,-20.00832 8.04533,-24.18489c8.43705,-4.17657 23.75681,-1.75357 23.75681,-1.75357z" fill="#828282"/></g></g></svg>