<svg version="1.1" xmlns="http://www.w3.org/2000/svg" xmlns:xlink="http://www.w3.org/1999/xlink" width="87.52764" height="87.01732" viewBox="0,0,87.52764,87.01732"><g transform="translate(-196.23618,-136.49134)"><g data-paper-data="{&quot;isPaintingLayer&quot;:true}" fill-rule="nonzero" stroke-linecap="butt" stroke-linejoin="miter" stroke-miterlimit="10" stroke-dasharray="" stroke-dashoffset="0" style="mix-blend-mode: normal"><path d="M275.35343,144.64315c9.06133,8.28519 6.85656,62.3457 -0.89466,70.27805c-6.86209,7.02245 -61.76874,8.86762 -70.36353,0.70979c-8.2966,-8.45471 -6.30023,-63.28585 1.47475,-70.87303c7.93546,-7.74379 61.6019,-7.59557 69.78344,-0.11481z" fill="#828282" stroke="#ffffff" stroke-width="5"/><g fill="#ffffff" stroke="none" stroke-width="0"><path d="M210.17086,177.59829v-6.40285h1.98709v6.40285z"/><path d="M211.93716,176.38395v-3.7534h23.62432v3.7534z"/><path d="M234.00671,176.18602l1.37082,-3.54332l19.38226,13.47696l-2.49013,3.07109z"/><path d="M252.04245,189.11153v-3.75339h10.59783v3.75339z"/><path d="M262.31996,191.08792l-0.13282,-8.5676l6.90569,4.34935z"/><path d="M212.49426,184.00171v6.40285h-1.98709v-6.40285z" data-paper-data="{&quot;index&quot;:null}"/><path d="M235.89779,185.21605v3.7534h-23.62432v-3.7534z" data-paper-data="{&quot;index&quot;:null}"/><path d="M252.88285,172.40926l2.21325,3.07109l-19.38226,13.47696l-1.37082,-3.54332z" data-paper-data="{&quot;index&quot;:null}"/><path d="M262.97659,172.48847v3.75339h-10.59783l0.27687,-3.80877z" data-paper-data="{&quot;index&quot;:null}"/><path d="M269.42914,174.73034l-6.90569,4.34935l0.13282,-8.56761z" data-paper-data="{&quot;index&quot;:null}"/></g><path d="M206.56776,216.04161l-4.33716,-4.57441l71.20164,-67.50882l4.33716,4.57441z" fill="#ffffff" stroke="none" stroke-width="0"/></g></g></svg>