<svg version="1.1" xmlns="http://www.w3.org/2000/svg" xmlns:xlink="http://www.w3.org/1999/xlink" width="87.52764" height="87.01732" viewBox="0,0,87.52764,87.01732"><g transform="translate(-196.23617,-136.49134)"><g data-paper-data="{&quot;isPaintingLayer&quot;:true}" fill-rule="nonzero" stroke-linecap="butt" stroke-linejoin="miter" stroke-miterlimit="10" stroke-dasharray="" stroke-dashoffset="0" style="mix-blend-mode: normal"><path d="M275.35342,144.64315c9.06133,8.28519 6.85656,62.3457 -0.89466,70.27805c-6.86209,7.02245 -61.76874,8.86762 -70.36353,0.70979c-8.2966,-8.45471 -6.30023,-63.28585 1.47475,-70.87303c7.93546,-7.74379 61.6019,-7.59557 69.78344,-0.11481z" fill="#828282" stroke="#ffffff" stroke-width="5"/><g fill="#72beff" stroke="none" stroke-width="0"><path d="M214.24932,195.86976l1.90715,-7.37483l39.39505,9.19985l-1.90715,7.37483z"/><path d="M247.35507,203.63218l10.94815,-40.59404l7.44744,1.67288l-10.94815,40.59404z"/><path d="M222.86345,162.22388l1.84071,-7.52894l37.09818,9.16441l-1.84071,7.52893z"/><path d="M215.10305,192.92193l1.74597,-7.13939l7.4481,1.84159l-1.74596,7.13939z"/><path d="M221.1309,169.01918l2.56503,-10.50164l7.44935,1.83648l-2.56504,10.50163z"/><path d="M222.57051,177.87099l-3.13446,-11.14102l11.93617,3.0572l-8.8096,8.1225z"/><path d="M215.23279,185.8124l0.75042,-3.06854l10.47389,2.58973l-0.75043,3.06854z"/></g><path d="M202.13302,211.56606l67.9891,-69.11549l7.74486,6.61639l-70.04908,68.48248z" data-paper-data="{&quot;index&quot;:null}" fill="#ffffff" stroke="none" stroke-width="0"/></g></g></svg>