<svg version="1.1" xmlns="http://www.w3.org/2000/svg" xmlns:xlink="http://www.w3.org/1999/xlink" width="87.52764" height="87.01732" viewBox="0,0,87.52764,87.01732"><g transform="translate(-196.23618,-136.49134)"><g data-paper-data="{&quot;isPaintingLayer&quot;:true}" fill-rule="nonzero" stroke-linecap="butt" stroke-linejoin="miter" stroke-miterlimit="10" stroke-dasharray="" stroke-dashoffset="0" style="mix-blend-mode: normal"><path d="M275.35343,144.64315c9.06133,8.28519 6.85656,62.3457 -0.89466,70.27805c-6.86209,7.02245 -61.76874,8.86762 -70.36353,0.70979c-8.2966,-8.45471 -6.30023,-63.28585 1.47475,-70.87303c7.93546,-7.74379 61.6019,-7.59557 69.78344,-0.11481z" fill="#828282" stroke="#ffffff" stroke-width="5"/><path d="M240.0579,193.11091c1.7752,1.79549 -1.38598,4.95975 -1.38598,4.95975c0,0 -3.34576,3.26477 -5.12178,1.46669c-7.00727,-7.0944 -16.17557,-16.37714 -16.17557,-16.37714l-3.01168,-3.15677l3.05165,-3.31055c0,0 10.75623,-10.62545 16.50891,-16.30655c1.79679,-1.77519 4.81489,1.57865 4.81489,1.57865c0,0 3.41009,3.15346 1.61284,4.92865c-7.0944,7.00681 -8.63232,8.54419 -8.63232,8.54419c0,0 32.94774,-0.38209 33.75164,-0.07414c0.5769,0.22099 -3.27349,3.66552 -3.27315,4.5776c0.00038,1.02017 3.75176,4.77779 3.38876,4.91781c-0.71703,0.27657 -33.94857,-0.27459 -33.94857,-0.27459c0,0 2.73836,2.77209 8.42038,8.52644z" data-paper-data="{&quot;index&quot;:null}" fill="#ffffff" stroke="none" stroke-width="0"/></g></g></svg>