<svg version="1.1" xmlns="http://www.w3.org/2000/svg" xmlns:xlink="http://www.w3.org/1999/xlink" width="87.52764" height="87.01732" viewBox="0,0,87.52764,87.01732"><g transform="translate(-196.23618,-136.49134)"><g data-paper-data="{&quot;isPaintingLayer&quot;:true}" fill-rule="nonzero" stroke-linecap="butt" stroke-linejoin="miter" stroke-miterlimit="10" stroke-dasharray="" stroke-dashoffset="0" style="mix-blend-mode: normal"><path d="M275.35343,144.64315c9.06133,8.28519 6.85656,62.3457 -0.89466,70.27805c-6.86209,7.02245 -61.76874,8.86762 -70.36353,0.70979c-8.2966,-8.45471 -6.30023,-63.28585 1.47475,-70.87303c7.93546,-7.74379 61.6019,-7.59557 69.78344,-0.11481z" fill="#828282" stroke="#ffffff" stroke-width="5"/><path d="M239.91583,193.11091c5.68202,-5.75435 8.42038,-8.52643 8.42038,-8.52643c0,0 -33.23154,0.55115 -33.94858,0.27459c-0.363,-0.14002 3.38838,-3.89763 3.38876,-4.9178c0.00034,-0.91207 -3.85006,-4.35661 -3.27316,-4.5776c0.8039,-0.30794 33.75164,0.07414 33.75164,0.07414c0,0 -1.53792,-1.53737 -8.63232,-8.54418c-1.79725,-1.77518 1.61284,-4.92864 1.61284,-4.92864c0,0 3.0181,-3.35385 4.81489,-1.57865c5.75268,5.6811 16.50891,16.30655 16.50891,16.30655l3.05165,3.31055l-3.01168,3.15678c0,0 -9.16829,9.28274 -16.17557,16.37714c-1.77602,1.79808 -5.12178,-1.46669 -5.12178,-1.46669c0,0 -3.16117,-3.16425 -1.38598,-4.95974z" data-paper-data="{&quot;index&quot;:null}" fill="#72beff" stroke="none" stroke-width="0"/></g></g></svg>