<svg version="1.1" xmlns="http://www.w3.org/2000/svg" xmlns:xlink="http://www.w3.org/1999/xlink" width="87.52764" height="87.01732" viewBox="0,0,87.52764,87.01732"><g transform="translate(-196.23617,-136.49134)"><g data-paper-data="{&quot;isPaintingLayer&quot;:true}" fill-rule="nonzero" stroke-linejoin="miter" stroke-miterlimit="10" stroke-dasharray="" stroke-dashoffset="0" style="mix-blend-mode: normal"><path d="M275.35342,144.64315c9.06133,8.28519 6.85656,62.3457 -0.89466,70.27805c-6.86209,7.02245 -61.76874,8.86762 -70.36353,0.70979c-8.2966,-8.45471 -6.30023,-63.28585 1.47475,-70.87303c7.93546,-7.74379 61.6019,-7.59557 69.78344,-0.11481z" fill="#828282" stroke="#ffffff" stroke-width="5" stroke-linecap="butt"/><path d="M219.39286,188.05357v-14.35714h4.71429l13.42856,-8.85715l-0.14285,32.92857l-13.42857,-9.71428z" fill="#ffffff" stroke="none" stroke-width="0" stroke-linecap="butt"/><path d="M243.53572,171.80357c0,0 3.36307,3.21868 3.28571,8.71428c-0.08573,5.92819 -3,9.14286 -3,9.14286" fill="none" stroke="#72beff" stroke-width="3" stroke-linecap="round"/><path d="M248.53572,164.57158c0,0 6.49398,6.74342 5.85611,15.53143c0.01388,10.39236 -5.34688,16.29528 -5.34688,16.29528" fill="none" stroke="#72beff" stroke-width="3" stroke-linecap="round"/><path d="M253.25,158.28587c0,0 8.01975,7.48627 8.33144,21.21239c-0.87536,15.77916 -7.63595,22.25563 -7.63595,22.25563" fill="none" stroke="#72beff" stroke-width="3" stroke-linecap="round"/></g></g></svg>