<svg version="1.1" xmlns="http://www.w3.org/2000/svg" xmlns:xlink="http://www.w3.org/1999/xlink" width="87.52764" height="87.01732" viewBox="0,0,87.52764,87.01732"><g transform="translate(-196.23618,-136.49134)"><g data-paper-data="{&quot;isPaintingLayer&quot;:true}" fill-rule="nonzero" stroke-linecap="butt" stroke-linejoin="miter" stroke-miterlimit="10" stroke-dasharray="" stroke-dashoffset="0" style="mix-blend-mode: normal"><path d="M275.35343,144.64315c9.06133,8.28519 6.85656,62.3457 -0.89466,70.27805c-6.86209,7.02245 -61.76874,8.86762 -70.36353,0.70979c-8.2966,-8.45471 -6.30023,-63.28585 1.47475,-70.87303c7.93546,-7.74379 61.6019,-7.59557 69.78344,-0.11481z" fill="#828282" stroke="#ffffff" stroke-width="5"/><g stroke="none" stroke-width="0"><path d="M232.28088,182.92878l-0.25555,-22.4667l-5.17936,-0.06053l-0.17014,-6.94817l26.85935,-0.03371l-0.10054,6.82687l-5.46377,0.06843l0.25552,22.46668z" fill="#72beff"/><path d="M239.74751,200.00714l-12.06029,-20.81253l25.60882,-0.005l-13.54445,20.89948z" fill="#72beff"/><path d="M226.4892,206.58033l-0.08801,-5.53618l27.10961,-0.16147l0.08801,5.53618z" fill="#ffffff"/></g></g></g></svg>